<svg xmlns="http://www.w3.org/2000/svg" width="18" height="19.97" viewBox="0 0 18 19.97">
  <metadata><?xpacket begin="﻿" id="W5M0MpCehiHzreSzNTczkc9d"?>
<x:xmpmeta xmlns:x="adobe:ns:meta/" x:xmptk="Adobe XMP Core 5.6-c142 79.160924, 2017/07/13-01:06:39        ">
   <rdf:RDF xmlns:rdf="http://www.w3.org/1999/02/22-rdf-syntax-ns#">
      <rdf:Description rdf:about=""/>
   </rdf:RDF>
</x:xmpmeta>
                                                                                                    
                                                                                                    
                                                                                                    
                                                                                                    
                                                                                                    
                                                                                                    
                                                                                                    
                                                                                                    
                                                                                                    
                                                                                                    
                                                                                                    
                                                                                                    
                                                                                                    
                                                                                                    
                                                                                                    
                                                                                                    
                                                                                                    
                                                                                                    
                                                                                                    
                                                                                                    
                           
<?xpacket end="w"?></metadata>
<defs>
    <style>
      .cls-1 {
        fill: #fff;
        fill-rule: evenodd;
      }
    </style>
  </defs>
  <path id="Forma_1" data-name="Forma 1" class="cls-1" d="M967.27,3265.5a0.721,0.721,0,0,0-.729.71,7.543,7.543,0,1,1-8.271-7.33v1.64a0.711,0.711,0,0,0,.365.62,0.716,0.716,0,0,0,.73,0l4.237-2.39a0.711,0.711,0,0,0,.365-0.62,0.7,0.7,0,0,0-.365-0.61l-4.237-2.39a0.732,0.732,0,0,0-.73,0,0.7,0.7,0,0,0-.365.61v1.71a8.8,8.8,0,1,0,9.73,8.76A0.722,0.722,0,0,0,967.27,3265.5Z" transform="translate(-950 -3255.03)"/>
</svg>
