<svg xmlns="http://www.w3.org/2000/svg" width="20" height="17" viewBox="0 0 20 17">
  <metadata><?xpacket begin="﻿" id="W5M0MpCehiHzreSzNTczkc9d"?>
<x:xmpmeta xmlns:x="adobe:ns:meta/" x:xmptk="Adobe XMP Core 5.6-c142 79.160924, 2017/07/13-01:06:39        ">
   <rdf:RDF xmlns:rdf="http://www.w3.org/1999/02/22-rdf-syntax-ns#">
      <rdf:Description rdf:about=""/>
   </rdf:RDF>
</x:xmpmeta>
                                                                                                    
                                                                                                    
                                                                                                    
                                                                                                    
                                                                                                    
                                                                                                    
                                                                                                    
                                                                                                    
                                                                                                    
                                                                                                    
                                                                                                    
                                                                                                    
                                                                                                    
                                                                                                    
                                                                                                    
                                                                                                    
                                                                                                    
                                                                                                    
                                                                                                    
                                                                                                    
                           
<?xpacket end="w"?></metadata>
<defs>
    <style>
      .cls-1 {
        fill: #fff;
        fill-rule: evenodd;
      }
    </style>
  </defs>
  <path id="Forma_1" data-name="Forma 1" class="cls-1" d="M1105.85,2905.2h0.65a19.544,19.544,0,0,1-1.64,2.6,2.729,2.729,0,0,0,.26,3.59,2.17,2.17,0,0,0,1.5.61,2.211,2.211,0,0,0,1.75-.89c0.61-.79,3.63-4.21,3.63-8.46v-4.25a3.251,3.251,0,0,0-3.08-3.4h-3.07a3.251,3.251,0,0,0-3.08,3.4v3.4A3.251,3.251,0,0,0,1105.85,2905.2Zm-1.54-6.8a1.626,1.626,0,0,1,1.54-1.7h3.07a1.626,1.626,0,0,1,1.54,1.7v4.25c0,3.28-2.31,6.16-3.06,7.1l-0.2.25a0.706,0.706,0,0,1-1.08.09,0.9,0.9,0,0,1-.09-1.19,20.385,20.385,0,0,0,1.8-2.85,1.825,1.825,0,0,0,0-1.7,1.5,1.5,0,0,0-1.33-.85h-0.65a1.626,1.626,0,0,1-1.54-1.7v-3.4Zm-9.23,6.8h0.65a19.544,19.544,0,0,1-1.64,2.6,2.74,2.74,0,0,0,.26,3.59,2.158,2.158,0,0,0,3.25-.28c0.61-.79,3.63-4.21,3.63-8.46v-4.25a3.251,3.251,0,0,0-3.08-3.4h-3.07a3.251,3.251,0,0,0-3.08,3.4v3.4A3.251,3.251,0,0,0,1095.08,2905.2Zm-1.54-6.8a1.626,1.626,0,0,1,1.54-1.7h3.07a1.626,1.626,0,0,1,1.54,1.7v4.25c0,3.28-2.31,6.16-3.06,7.11l-0.2.24a0.706,0.706,0,0,1-1.08.09,0.913,0.913,0,0,1-.09-1.19,20.385,20.385,0,0,0,1.8-2.85,1.825,1.825,0,0,0,0-1.7,1.5,1.5,0,0,0-1.33-.85h-0.65a1.626,1.626,0,0,1-1.54-1.7v-3.4Z" transform="translate(-1092 -2895)"/>
</svg>
